<svg width="1595" height="533" viewBox="0 0 1595 533" fill="none" xmlns="http://www.w3.org/2000/svg">
<path d="M213 443.75C213 439.042 214.87 434.528 218.199 431.199C221.528 427.87 226.042 426 230.75 426H337.25C341.958 426 346.472 427.87 349.801 431.199C353.13 434.528 355 439.042 355 443.75C355 448.458 353.13 452.972 349.801 456.301C346.472 459.63 341.958 461.5 337.25 461.5H230.75C226.042 461.5 221.528 459.63 218.199 456.301C214.87 452.972 213 448.458 213 443.75ZM106.5 286.201C106.5 239.98 150.343 204.658 196.315 208.953C254.645 214.397 313.355 214.397 371.685 208.953C417.658 204.658 461.5 239.98 461.5 286.201V327.275C461.645 335.129 458.993 342.78 454.019 348.86C449.044 354.94 442.07 359.054 434.343 360.467C404.345 365.686 351.273 372.75 284 372.75C216.728 372.75 163.655 365.65 133.658 360.467C125.93 359.054 118.956 354.94 113.981 348.86C109.007 342.78 106.355 335.129 106.5 327.275V286.201ZM267.741 256.843C266.358 256.607 264.938 256.703 263.599 257.123C262.26 257.543 261.039 258.274 260.038 259.257L227.378 291.207C205.163 289.882 183.007 287.715 160.957 284.71C158.672 284.483 156.388 285.15 154.585 286.572C152.782 287.994 151.6 290.059 151.287 292.334C150.975 294.609 151.556 296.916 152.909 298.771C154.262 300.626 156.281 301.885 158.543 302.283C178.068 304.981 202.279 307.572 230.253 309.134C231.485 309.203 232.718 309.015 233.874 308.581C235.029 308.147 236.081 307.477 236.963 306.614L263.73 280.486L293.798 341.191C294.431 342.464 295.362 343.567 296.51 344.405C297.659 345.244 298.992 345.795 300.398 346.011C301.804 346.226 303.241 346.101 304.589 345.645C305.936 345.189 307.154 344.417 308.14 343.392L341.226 308.957C364.046 307.601 386.807 305.375 409.457 302.283C411.719 301.885 413.738 300.626 415.091 298.771C416.444 296.916 417.026 294.609 416.713 292.334C416.401 290.059 415.219 287.994 413.415 286.572C411.612 285.15 409.328 284.483 407.043 284.71C387.944 287.337 364.195 289.857 336.753 291.419C334.519 291.544 332.414 292.507 330.86 294.118L304.093 321.985L274.202 261.635C273.579 260.384 272.668 259.298 271.546 258.465C270.423 257.632 269.119 257.076 267.741 256.843Z" fill="url(#paint0_linear_102_58)"/>
<path d="M301.75 66.2439C308.518 62.3365 313.807 56.3052 316.798 49.0853C319.788 41.8654 320.313 33.8604 318.29 26.3119C316.268 18.7634 311.811 12.0933 305.611 7.33596C299.411 2.57863 291.815 0 284 0C276.185 0 268.589 2.57863 262.389 7.33596C256.189 12.0933 251.732 18.7634 249.71 26.3119C247.687 33.8604 248.212 41.8654 251.202 49.0853C254.193 56.3052 259.482 62.3365 266.25 66.2439V106.501H195.25C152.882 106.501 112.249 123.332 82.2897 153.291C52.3308 183.25 35.5 223.883 35.5 266.251V284.001C26.0848 284.001 17.0553 287.741 10.3977 294.399C3.74017 301.056 0 310.086 0 319.501L0 390.501C0 399.916 3.74017 408.946 10.3977 415.603C17.0553 422.261 26.0848 426.001 35.5 426.001V461.501C35.5 480.331 42.9803 498.39 56.2954 511.705C69.6105 525.021 87.6696 532.501 106.5 532.501H461.5C480.33 532.501 498.389 525.021 511.705 511.705C525.02 498.39 532.5 480.331 532.5 461.501V426.001C541.915 426.001 550.945 422.261 557.602 415.603C564.26 408.946 568 399.916 568 390.501V319.501C568 310.086 564.26 301.056 557.602 294.399C550.945 287.741 541.915 284.001 532.5 284.001V266.251C532.5 223.883 515.669 183.25 485.71 153.291C455.751 123.332 415.118 106.501 372.75 106.501H301.75V66.2439ZM497 266.251V461.501C497 470.916 493.26 479.946 486.602 486.603C479.945 493.261 470.915 497.001 461.5 497.001H106.5C97.0848 497.001 88.0553 493.261 81.3977 486.603C74.7402 479.946 71 470.916 71 461.501V266.251C71 233.298 84.0906 201.694 107.392 178.393C130.693 155.091 162.297 142.001 195.25 142.001H372.75C405.703 142.001 437.307 155.091 460.608 178.393C483.909 201.694 497 233.298 497 266.251Z" fill="#28ABDA"/>
<path d="M644.6 309.5V285.2H693.35V266.3H644.6V243.5H699.8V224H620.45V329H701.75V309.5H644.6ZM736.005 296.15H778.455V277.4H736.005V296.15ZM914.016 329L890.466 295.25C904.116 289.4 912.066 277.85 912.066 262.1C912.066 238.55 894.516 224 866.466 224H821.016V329H845.316V299.75H866.466H867.666L887.916 329H914.016ZM887.466 262.1C887.466 273.5 879.966 280.4 865.116 280.4H845.316V243.8H865.116C879.966 243.8 887.466 250.55 887.466 262.1ZM1032.27 329H1057.77L1010.82 224H986.819L940.019 329H964.919L974.219 306.5H1022.97L1032.27 329ZM982.019 288.05L998.669 247.85L1015.32 288.05H982.019ZM1163.46 224V287.75L1111.26 224H1091.16V329H1115.16V265.25L1167.51 329H1187.46V224H1163.46ZM1305.76 305.6C1299.61 308.9 1293.46 310.1 1286.86 310.1C1266.76 310.1 1252.81 296.15 1252.81 276.5C1252.81 256.55 1266.76 242.9 1287.16 242.9C1297.81 242.9 1306.66 246.65 1314.31 254.75L1329.91 240.35C1319.71 228.5 1304.41 222.2 1285.96 222.2C1252.51 222.2 1228.21 244.85 1228.21 276.5C1228.21 308.15 1252.51 330.8 1285.51 330.8C1300.51 330.8 1316.41 326.15 1327.96 317.45V274.85H1305.76V305.6Z" fill="#4A525E"/>
<path d="M1397.18 309.5V285.2H1445.93V266.3H1397.18V243.5H1452.38V224H1373.03V329H1454.33V309.5H1397.18ZM1589.16 329L1565.61 295.25C1579.26 289.4 1587.21 277.85 1587.21 262.1C1587.21 238.55 1569.66 224 1541.61 224H1496.16V329H1520.46V299.75H1541.61H1542.81L1563.06 329H1589.16ZM1562.61 262.1C1562.61 273.5 1555.11 280.4 1540.26 280.4H1520.46V243.8H1540.26C1555.11 243.8 1562.61 250.55 1562.61 262.1Z" fill="#28ABDA"/>
<path d="M623.96 401.64V393.92H637.48V389.64H623.96V382.36H639.2V378H618.76V406H639.76V401.64H623.96ZM659.197 384.4C656.077 384.4 653.477 385.44 651.837 387.4V384.64H647.077V406H652.077V395.2C652.077 390.92 654.477 388.76 658.037 388.76C661.237 388.76 663.117 390.6 663.117 394.4V406H668.117V393.76C668.117 387.32 664.317 384.4 659.197 384.4ZM693.095 384.64V387.48C691.335 385.36 688.695 384.4 685.695 384.4C679.575 384.4 674.895 388.48 674.895 394.68C674.895 400.88 679.575 405.04 685.695 405.04C688.575 405.04 691.095 404.12 692.855 402.2V403.32C692.855 407.64 690.775 409.8 686.055 409.8C683.095 409.8 680.055 408.8 678.175 407.24L675.935 411C678.375 413 682.335 414.04 686.335 414.04C693.815 414.04 697.855 410.52 697.855 402.76V384.64H693.095ZM686.455 400.8C682.655 400.8 679.935 398.32 679.935 394.68C679.935 391.08 682.655 388.64 686.455 388.64C690.215 388.64 692.935 391.08 692.935 394.68C692.935 398.32 690.215 400.8 686.455 400.8ZM708.948 381.12C710.828 381.12 712.148 379.76 712.148 378C712.148 376.36 710.788 375.12 708.948 375.12C707.108 375.12 705.748 376.44 705.748 378.12C705.748 379.8 707.108 381.12 708.948 381.12ZM706.428 406H711.428V384.64H706.428V406ZM732.111 384.4C728.991 384.4 726.391 385.44 724.751 387.4V384.64H719.991V406H724.991V395.2C724.991 390.92 727.391 388.76 730.951 388.76C734.151 388.76 736.031 390.6 736.031 394.4V406H741.031V393.76C741.031 387.32 737.231 384.4 732.111 384.4ZM769.649 395.44C769.649 388.76 765.089 384.4 758.849 384.4C752.489 384.4 747.809 388.96 747.809 395.32C747.809 401.68 752.449 406.28 759.609 406.28C763.289 406.28 766.289 405.08 768.209 402.8L765.529 399.72C764.009 401.28 762.129 402.04 759.729 402.04C756.009 402.04 753.409 400.04 752.809 396.92H769.569C769.609 396.44 769.649 395.84 769.649 395.44ZM758.849 388.4C762.129 388.4 764.489 390.52 764.889 393.6H752.769C753.249 390.48 755.609 388.4 758.849 388.4ZM796.532 395.44C796.532 388.76 791.972 384.4 785.732 384.4C779.372 384.4 774.692 388.96 774.692 395.32C774.692 401.68 779.332 406.28 786.492 406.28C790.172 406.28 793.172 405.08 795.092 402.8L792.412 399.72C790.892 401.28 789.012 402.04 786.612 402.04C782.892 402.04 780.292 400.04 779.692 396.92H796.452C796.492 396.44 796.532 395.84 796.532 395.44ZM785.732 388.4C789.012 388.4 791.372 390.52 791.772 393.6H779.652C780.132 390.48 782.492 388.4 785.732 388.4ZM808.095 387.76V384.64H803.335V406H808.335V395.64C808.335 391.28 810.735 389.04 814.535 389.04C814.895 389.04 815.255 389.08 815.695 389.16V384.4C812.135 384.4 809.535 385.52 808.095 387.76ZM824.456 381.12C826.336 381.12 827.656 379.76 827.656 378C827.656 376.36 826.296 375.12 824.456 375.12C822.616 375.12 821.256 376.44 821.256 378.12C821.256 379.8 822.616 381.12 824.456 381.12ZM821.936 406H826.936V384.64H821.936V406ZM847.619 384.4C844.499 384.4 841.899 385.44 840.259 387.4V384.64H835.499V406H840.499V395.2C840.499 390.92 842.899 388.76 846.459 388.76C849.659 388.76 851.539 390.6 851.539 394.4V406H856.539V393.76C856.539 387.32 852.739 384.4 847.619 384.4ZM881.517 384.64V387.48C879.757 385.36 877.117 384.4 874.117 384.4C867.997 384.4 863.317 388.48 863.317 394.68C863.317 400.88 867.997 405.04 874.117 405.04C876.997 405.04 879.517 404.12 881.277 402.2V403.32C881.277 407.64 879.197 409.8 874.477 409.8C871.517 409.8 868.477 408.8 866.597 407.24L864.357 411C866.797 413 870.757 414.04 874.757 414.04C882.237 414.04 886.277 410.52 886.277 402.76V384.64H881.517ZM874.877 400.8C871.077 400.8 868.357 398.32 868.357 394.68C868.357 391.08 871.077 388.64 874.877 388.64C878.637 388.64 881.357 391.08 881.357 394.68C881.357 398.32 878.637 400.8 874.877 400.8ZM908.385 406H920.625C929.705 406 935.905 400.4 935.905 392C935.905 383.6 929.705 378 920.625 378H908.385V406ZM913.585 401.6V382.4H920.385C926.625 382.4 930.665 386.2 930.665 392C930.665 397.8 926.625 401.6 920.385 401.6H913.585ZM951.112 384.4C947.672 384.4 944.352 385.28 942.072 387.04L944.032 390.68C945.632 389.36 948.112 388.56 950.512 388.56C954.072 388.56 955.832 390.28 955.832 393.2V393.52H950.312C943.832 393.52 941.432 396.32 941.432 399.88C941.432 403.6 944.512 406.28 949.392 406.28C952.592 406.28 954.912 405.24 956.112 403.4V406H960.832V393.48C960.832 387.32 957.272 384.4 951.112 384.4ZM950.432 402.64C947.872 402.64 946.352 401.48 946.352 399.68C946.352 398.12 947.272 396.84 950.672 396.84H955.832V399.32C954.992 401.52 952.872 402.64 950.432 402.64ZM975.849 406.28C981.849 406.28 985.529 403.68 985.529 399.68C985.529 391.32 972.329 395.16 972.329 390.84C972.329 389.44 973.769 388.44 976.809 388.44C978.849 388.44 980.889 388.84 982.929 390.04L984.849 386.24C982.929 385.08 979.689 384.4 976.849 384.4C971.089 384.4 967.449 387.04 967.449 391.08C967.449 399.6 980.649 395.76 980.649 399.84C980.649 401.32 979.329 402.2 976.169 402.2C973.489 402.2 970.609 401.32 968.729 400.08L966.809 403.88C968.729 405.24 972.289 406.28 975.849 406.28ZM1003.95 384.4C1000.99 384.4 998.475 385.36 996.835 387.12V376.32H991.835V406H996.835V395.2C996.835 390.92 999.235 388.76 1002.79 388.76C1005.99 388.76 1007.87 390.6 1007.87 394.4V406H1012.87V393.76C1012.87 387.32 1009.07 384.4 1003.95 384.4ZM1033.06 384.4C1030.34 384.4 1027.94 385.32 1026.22 387.24V376.32H1021.22V406H1025.98V403.24C1027.66 405.28 1030.14 406.28 1033.06 406.28C1039.3 406.28 1043.9 401.96 1043.9 395.32C1043.9 388.68 1039.3 384.4 1033.06 384.4ZM1032.5 402C1028.9 402 1026.14 399.4 1026.14 395.32C1026.14 391.24 1028.9 388.64 1032.5 388.64C1036.1 388.64 1038.82 391.24 1038.82 395.32C1038.82 399.4 1036.1 402 1032.5 402ZM1060.24 406.28C1066.88 406.28 1071.64 401.72 1071.64 395.32C1071.64 388.92 1066.88 384.4 1060.24 384.4C1053.68 384.4 1048.88 388.92 1048.88 395.32C1048.88 401.72 1053.68 406.28 1060.24 406.28ZM1060.24 402C1056.64 402 1053.92 399.4 1053.92 395.32C1053.92 391.24 1056.64 388.64 1060.24 388.64C1063.88 388.64 1066.6 391.24 1066.6 395.32C1066.6 399.4 1063.88 402 1060.24 402ZM1086.31 384.4C1082.87 384.4 1079.55 385.28 1077.27 387.04L1079.23 390.68C1080.83 389.36 1083.31 388.56 1085.71 388.56C1089.27 388.56 1091.03 390.28 1091.03 393.2V393.52H1085.51C1079.03 393.52 1076.63 396.32 1076.63 399.88C1076.63 403.6 1079.71 406.28 1084.59 406.28C1087.79 406.28 1090.11 405.24 1091.31 403.4V406H1096.03V393.48C1096.03 387.32 1092.47 384.4 1086.31 384.4ZM1085.63 402.64C1083.07 402.64 1081.55 401.48 1081.55 399.68C1081.55 398.12 1082.47 396.84 1085.87 396.84H1091.03V399.32C1090.19 401.52 1088.07 402.64 1085.63 402.64ZM1109.2 387.76V384.64H1104.44V406H1109.44V395.64C1109.44 391.28 1111.84 389.04 1115.64 389.04C1116 389.04 1116.36 389.08 1116.8 389.16V384.4C1113.24 384.4 1110.64 385.52 1109.2 387.76ZM1138.77 376.32V387.28C1137.09 385.32 1134.65 384.4 1131.89 384.4C1125.69 384.4 1121.09 388.68 1121.09 395.32C1121.09 401.96 1125.69 406.28 1131.89 406.28C1134.81 406.28 1137.29 405.28 1138.97 403.24V406H1143.77V376.32H1138.77ZM1132.49 402C1128.89 402 1126.13 399.4 1126.13 395.32C1126.13 391.24 1128.89 388.64 1132.49 388.64C1136.09 388.64 1138.85 391.24 1138.85 395.32C1138.85 399.4 1136.09 402 1132.49 402ZM1165.85 406H1171.05V378H1165.85V406ZM1192.26 384.4C1189.14 384.4 1186.54 385.44 1184.9 387.4V384.64H1180.14V406H1185.14V395.2C1185.14 390.92 1187.54 388.76 1191.1 388.76C1194.3 388.76 1196.18 390.6 1196.18 394.4V406H1201.18V393.76C1201.18 387.32 1197.38 384.4 1192.26 384.4ZM1220.96 401.28C1220.2 401.88 1219.2 402.16 1218.16 402.16C1216.24 402.16 1215.2 401.04 1215.2 398.96V388.8H1220.92V384.8H1215.2V379.92H1210.2V384.8H1206.68V388.8H1210.2V399.08C1210.2 403.8 1212.88 406.28 1217.56 406.28C1219.36 406.28 1221.16 405.8 1222.36 404.84L1220.96 401.28ZM1247.85 395.44C1247.85 388.76 1243.29 384.4 1237.05 384.4C1230.69 384.4 1226.01 388.96 1226.01 395.32C1226.01 401.68 1230.65 406.28 1237.81 406.28C1241.49 406.28 1244.49 405.08 1246.41 402.8L1243.73 399.72C1242.21 401.28 1240.33 402.04 1237.93 402.04C1234.21 402.04 1231.61 400.04 1231.01 396.92H1247.77C1247.81 396.44 1247.85 395.84 1247.85 395.44ZM1237.05 388.4C1240.33 388.4 1242.69 390.52 1243.09 393.6H1230.97C1231.45 390.48 1233.81 388.4 1237.05 388.4ZM1259.42 387.76V384.64H1254.66V406H1259.66V395.64C1259.66 391.28 1262.06 389.04 1265.86 389.04C1266.22 389.04 1266.58 389.08 1267.02 389.16V384.4C1263.46 384.4 1260.86 385.52 1259.42 387.76ZM1289.5 384.64V387.48C1287.74 385.36 1285.1 384.4 1282.1 384.4C1275.98 384.4 1271.3 388.48 1271.3 394.68C1271.3 400.88 1275.98 405.04 1282.1 405.04C1284.98 405.04 1287.5 404.12 1289.26 402.2V403.32C1289.26 407.64 1287.18 409.8 1282.46 409.8C1279.5 409.8 1276.46 408.8 1274.58 407.24L1272.34 411C1274.78 413 1278.74 414.04 1282.74 414.04C1290.22 414.04 1294.26 410.52 1294.26 402.76V384.64H1289.5ZM1282.86 400.8C1279.06 400.8 1276.34 398.32 1276.34 394.68C1276.34 391.08 1279.06 388.64 1282.86 388.64C1286.62 388.64 1289.34 391.08 1289.34 394.68C1289.34 398.32 1286.62 400.8 1282.86 400.8ZM1307.59 387.76V384.64H1302.83V406H1307.83V395.64C1307.83 391.28 1310.23 389.04 1314.03 389.04C1314.39 389.04 1314.75 389.08 1315.19 389.16V384.4C1311.63 384.4 1309.03 385.52 1307.59 387.76ZM1329.48 384.4C1326.04 384.4 1322.72 385.28 1320.44 387.04L1322.4 390.68C1324 389.36 1326.48 388.56 1328.88 388.56C1332.44 388.56 1334.2 390.28 1334.2 393.2V393.52H1328.68C1322.2 393.52 1319.8 396.32 1319.8 399.88C1319.8 403.6 1322.88 406.28 1327.76 406.28C1330.96 406.28 1333.28 405.24 1334.48 403.4V406H1339.2V393.48C1339.2 387.32 1335.64 384.4 1329.48 384.4ZM1328.8 402.64C1326.24 402.64 1324.72 401.48 1324.72 399.68C1324.72 398.12 1325.64 396.84 1329.04 396.84H1334.2V399.32C1333.36 401.52 1331.24 402.64 1328.8 402.64ZM1359.06 401.28C1358.3 401.88 1357.3 402.16 1356.26 402.16C1354.34 402.16 1353.3 401.04 1353.3 398.96V388.8H1359.02V384.8H1353.3V379.92H1348.3V384.8H1344.78V388.8H1348.3V399.08C1348.3 403.8 1350.98 406.28 1355.66 406.28C1357.46 406.28 1359.26 405.8 1360.46 404.84L1359.06 401.28ZM1385.95 395.44C1385.95 388.76 1381.39 384.4 1375.15 384.4C1368.79 384.4 1364.11 388.96 1364.11 395.32C1364.11 401.68 1368.75 406.28 1375.91 406.28C1379.59 406.28 1382.59 405.08 1384.51 402.8L1381.83 399.72C1380.31 401.28 1378.43 402.04 1376.03 402.04C1372.31 402.04 1369.71 400.04 1369.11 396.92H1385.87C1385.91 396.44 1385.95 395.84 1385.95 395.44ZM1375.15 388.4C1378.43 388.4 1380.79 390.52 1381.19 393.6H1369.07C1369.55 390.48 1371.91 388.4 1375.15 388.4ZM1408.67 376.32V387.28C1406.99 385.32 1404.55 384.4 1401.79 384.4C1395.59 384.4 1390.99 388.68 1390.99 395.32C1390.99 401.96 1395.59 406.28 1401.79 406.28C1404.71 406.28 1407.19 405.28 1408.87 403.24V406H1413.67V376.32H1408.67ZM1402.39 402C1398.79 402 1396.03 399.4 1396.03 395.32C1396.03 391.24 1398.79 388.64 1402.39 388.64C1405.99 388.64 1408.75 391.24 1408.75 395.32C1408.75 399.4 1405.99 402 1402.39 402ZM1444.42 406.4C1452.1 406.4 1455.74 402.56 1455.74 398.08C1455.74 387.8 1439.14 391.68 1439.14 385.72C1439.14 383.6 1440.9 381.92 1445.22 381.92C1447.66 381.92 1450.42 382.64 1452.94 384.12L1454.58 380.08C1452.14 378.48 1448.62 377.6 1445.26 377.6C1437.58 377.6 1433.98 381.44 1433.98 385.96C1433.98 396.36 1450.62 392.4 1450.62 398.44C1450.62 400.52 1448.78 402.08 1444.42 402.08C1440.98 402.08 1437.42 400.8 1435.18 399L1433.38 403.04C1435.7 405.04 1440.06 406.4 1444.42 406.4ZM1477.23 384.64L1470.47 400.44L1463.75 384.64H1458.55L1467.87 406.08L1467.51 406.92C1466.55 409.04 1465.51 409.88 1463.75 409.88C1462.39 409.88 1461.03 409.32 1460.07 408.4L1458.07 412.08C1459.43 413.32 1461.67 414.04 1463.79 414.04C1467.35 414.04 1470.07 412.56 1472.03 407.72L1482.03 384.64H1477.23ZM1493.48 406.28C1499.48 406.28 1503.16 403.68 1503.16 399.68C1503.16 391.32 1489.96 395.16 1489.96 390.84C1489.96 389.44 1491.4 388.44 1494.44 388.44C1496.48 388.44 1498.52 388.84 1500.56 390.04L1502.48 386.24C1500.56 385.08 1497.32 384.4 1494.48 384.4C1488.72 384.4 1485.08 387.04 1485.08 391.08C1485.08 399.6 1498.28 395.76 1498.28 399.84C1498.28 401.32 1496.96 402.2 1493.8 402.2C1491.12 402.2 1488.24 401.32 1486.36 400.08L1484.44 403.88C1486.36 405.24 1489.92 406.28 1493.48 406.28ZM1520.91 401.28C1520.15 401.88 1519.15 402.16 1518.11 402.16C1516.19 402.16 1515.15 401.04 1515.15 398.96V388.8H1520.87V384.8H1515.15V379.92H1510.15V384.8H1506.63V388.8H1510.15V399.08C1510.15 403.8 1512.83 406.28 1517.51 406.28C1519.31 406.28 1521.11 405.8 1522.31 404.84L1520.91 401.28ZM1547.8 395.44C1547.8 388.76 1543.24 384.4 1537 384.4C1530.64 384.4 1525.96 388.96 1525.96 395.32C1525.96 401.68 1530.6 406.28 1537.76 406.28C1541.44 406.28 1544.44 405.08 1546.36 402.8L1543.68 399.72C1542.16 401.28 1540.28 402.04 1537.88 402.04C1534.16 402.04 1531.56 400.04 1530.96 396.92H1547.72C1547.76 396.44 1547.8 395.84 1547.8 395.44ZM1537 388.4C1540.28 388.4 1542.64 390.52 1543.04 393.6H1530.92C1531.4 390.48 1533.76 388.4 1537 388.4ZM1581.56 384.4C1578.16 384.4 1575.28 385.76 1573.56 387.96C1572.08 385.56 1569.48 384.4 1566.36 384.4C1563.44 384.4 1560.96 385.44 1559.36 387.36V384.64H1554.6V406H1559.6V395.16C1559.6 390.92 1561.84 388.76 1565.16 388.76C1568.2 388.76 1569.96 390.6 1569.96 394.4V406H1574.96V395.16C1574.96 390.92 1577.24 388.76 1580.52 388.76C1583.56 388.76 1585.32 390.6 1585.32 394.4V406H1590.32V393.76C1590.32 387.32 1586.72 384.4 1581.56 384.4Z" fill="#768396"/>
<defs>
<linearGradient id="paint0_linear_102_58" x1="476.118" y1="182.094" x2="63.4824" y2="394.259" gradientUnits="userSpaceOnUse">
<stop stop-color="#28ABDA"/>
<stop offset="0.875515" stop-color="#34DEF5" stop-opacity="0.58"/>
</linearGradient>
</defs>
</svg>
