<svg width="1010" height="802" viewBox="0 0 1010 802" fill="none" xmlns="http://www.w3.org/2000/svg">
<path d="M434 443.75C434 439.043 435.87 434.528 439.199 431.199C442.528 427.87 447.042 426 451.75 426H558.25C562.958 426 567.472 427.87 570.801 431.199C574.13 434.528 576 439.043 576 443.75C576 448.458 574.13 452.973 570.801 456.301C567.472 459.63 562.958 461.5 558.25 461.5H451.75C447.042 461.5 442.528 459.63 439.199 456.301C435.87 452.973 434 448.458 434 443.75ZM327.5 286.201C327.5 239.98 371.343 204.658 417.315 208.953C475.645 214.397 534.355 214.397 592.685 208.953C638.658 204.658 682.5 239.98 682.5 286.201V327.275C682.645 335.129 679.993 342.78 675.019 348.86C670.044 354.94 663.07 359.054 655.343 360.467C625.345 365.686 572.273 372.75 505 372.75C437.728 372.75 384.655 365.65 354.658 360.467C346.93 359.054 339.956 354.94 334.981 348.86C330.007 342.78 327.355 335.129 327.5 327.275V286.201ZM488.741 256.843C487.358 256.607 485.938 256.703 484.599 257.123C483.26 257.543 482.039 258.274 481.038 259.257L448.378 291.207C426.163 289.882 404.007 287.715 381.957 284.71C379.672 284.483 377.388 285.151 375.585 286.572C373.782 287.994 372.6 290.059 372.287 292.334C371.975 294.609 372.556 296.916 373.909 298.771C375.262 300.627 377.281 301.885 379.543 302.283C399.068 304.981 423.279 307.572 451.253 309.134C452.485 309.204 453.718 309.015 454.874 308.581C456.029 308.147 457.081 307.477 457.963 306.614L484.73 280.486L514.798 341.191C515.431 342.464 516.362 343.567 517.51 344.406C518.659 345.244 519.992 345.795 521.398 346.011C522.804 346.226 524.241 346.101 525.589 345.645C526.936 345.19 528.154 344.417 529.14 343.392L562.226 308.957C585.046 307.602 607.807 305.375 630.457 302.283C632.719 301.885 634.738 300.627 636.091 298.771C637.444 296.916 638.026 294.609 637.713 292.334C637.401 290.059 636.219 287.994 634.415 286.572C632.612 285.151 630.328 284.483 628.043 284.71C608.944 287.337 585.195 289.858 557.753 291.42C555.519 291.544 553.414 292.508 551.86 294.118L525.093 321.985L495.202 261.635C494.579 260.384 493.668 259.298 492.546 258.465C491.423 257.632 490.119 257.076 488.741 256.843Z" fill="url(#paint0_linear_102_69)"/>
<path d="M522.75 66.2439C529.518 62.3365 534.807 56.3052 537.798 49.0853C540.788 41.8654 541.313 33.8604 539.29 26.3119C537.268 18.7634 532.811 12.0933 526.611 7.33596C520.411 2.57863 512.815 0 505 0C497.185 0 489.589 2.57863 483.389 7.33596C477.189 12.0933 472.732 18.7634 470.71 26.3119C468.687 33.8604 469.212 41.8654 472.202 49.0853C475.193 56.3052 480.482 62.3365 487.25 66.2439V106.501H416.25C373.882 106.501 333.249 123.332 303.29 153.291C273.331 183.25 256.5 223.883 256.5 266.251V284.001C247.085 284.001 238.055 287.741 231.398 294.399C224.74 301.056 221 310.086 221 319.501V390.501C221 399.916 224.74 408.946 231.398 415.603C238.055 422.261 247.085 426.001 256.5 426.001V461.501C256.5 480.331 263.98 498.39 277.295 511.705C290.611 525.021 308.67 532.501 327.5 532.501H682.5C701.33 532.501 719.389 525.021 732.705 511.705C746.02 498.39 753.5 480.331 753.5 461.501V426.001C762.915 426.001 771.945 422.261 778.602 415.603C785.26 408.946 789 399.916 789 390.501V319.501C789 310.086 785.26 301.056 778.602 294.399C771.945 287.741 762.915 284.001 753.5 284.001V266.251C753.5 223.883 736.669 183.25 706.71 153.291C676.751 123.332 636.118 106.501 593.75 106.501H522.75V66.2439ZM718 266.251V461.501C718 470.916 714.26 479.946 707.602 486.603C700.945 493.261 691.915 497.001 682.5 497.001H327.5C318.085 497.001 309.055 493.261 302.398 486.603C295.74 479.946 292 470.916 292 461.501V266.251C292 233.298 305.091 201.694 328.392 178.393C351.693 155.091 383.297 142.001 416.25 142.001H593.75C626.703 142.001 658.307 155.091 681.608 178.393C704.909 201.694 718 233.298 718 266.251Z" fill="#28ABDA"/>
<path d="M36.6 683.5V659.2H85.35V640.3H36.6V617.5H91.8V598H12.45V703H93.75V683.5H36.6ZM131.005 670.15H173.455V651.4H131.005V670.15ZM312.016 703L288.466 669.25C302.116 663.4 310.066 651.85 310.066 636.1C310.066 612.55 292.516 598 264.466 598H219.016V703H243.316V673.75H264.466H265.666L285.916 703H312.016ZM285.466 636.1C285.466 647.5 277.966 654.4 263.116 654.4H243.316V617.8H263.116C277.966 617.8 285.466 624.55 285.466 636.1ZM433.269 703H458.769L411.819 598H387.819L341.019 703H365.919L375.219 680.5H423.969L433.269 703ZM383.019 662.05L399.669 621.85L416.319 662.05H383.019ZM567.463 598V661.75L515.263 598H495.163V703H519.163V639.25L571.513 703H591.463V598H567.463ZM712.755 679.6C706.605 682.9 700.455 684.1 693.855 684.1C673.755 684.1 659.805 670.15 659.805 650.5C659.805 630.55 673.755 616.9 694.155 616.9C704.805 616.9 713.655 620.65 721.305 628.75L736.905 614.35C726.705 602.5 711.405 596.2 692.955 596.2C659.505 596.2 635.205 618.85 635.205 650.5C635.205 682.15 659.505 704.8 692.505 704.8C707.505 704.8 723.405 700.15 734.955 691.45V648.85H712.755V679.6Z" fill="#4A525E"/>
<path d="M807.178 683.5V659.2H855.928V640.3H807.178V617.5H862.378V598H783.028V703H864.328V683.5H807.178ZM1002.16 703L978.613 669.25C992.263 663.4 1000.21 651.85 1000.21 636.1C1000.21 612.55 982.663 598 954.613 598H909.163V703H933.463V673.75H954.613H955.813L976.063 703H1002.16ZM975.613 636.1C975.613 647.5 968.113 654.4 953.263 654.4H933.463V617.8H953.263C968.113 617.8 975.613 624.55 975.613 636.1Z" fill="#28ABDA"/>
<path d="M18.2 783.55V773.9H35.1V768.55H18.2V759.45H37.25V754H11.7V789H37.95V783.55H18.2ZM62.2461 762C58.3461 762 55.0961 763.3 53.0461 765.75V762.3H47.0961V789H53.3461V775.5C53.3461 770.15 56.3461 767.45 60.7961 767.45C64.7961 767.45 67.1461 769.75 67.1461 774.5V789H73.3961V773.7C73.3961 765.65 68.6461 762 62.2461 762ZM104.619 762.3V765.85C102.419 763.2 99.1188 762 95.3688 762C87.7188 762 81.8688 767.1 81.8688 774.85C81.8688 782.6 87.7188 787.8 95.3688 787.8C98.9688 787.8 102.119 786.65 104.319 784.25V785.65C104.319 791.05 101.719 793.75 95.8188 793.75C92.1188 793.75 88.3188 792.5 85.9688 790.55L83.1688 795.25C86.2188 797.75 91.1688 799.05 96.1688 799.05C105.519 799.05 110.569 794.65 110.569 784.95V762.3H104.619ZM96.3188 782.5C91.5688 782.5 88.1688 779.4 88.1688 774.85C88.1688 770.35 91.5688 767.3 96.3188 767.3C101.019 767.3 104.419 770.35 104.419 774.85C104.419 779.4 101.019 782.5 96.3188 782.5ZM124.436 757.9C126.786 757.9 128.436 756.2 128.436 754C128.436 751.95 126.736 750.4 124.436 750.4C122.136 750.4 120.436 752.05 120.436 754.15C120.436 756.25 122.136 757.9 124.436 757.9ZM121.286 789H127.536V762.3H121.286V789ZM153.389 762C149.489 762 146.239 763.3 144.189 765.75V762.3H138.239V789H144.489V775.5C144.489 770.15 147.489 767.45 151.939 767.45C155.939 767.45 158.289 769.75 158.289 774.5V789H164.539V773.7C164.539 765.65 159.789 762 153.389 762ZM200.311 775.8C200.311 767.45 194.611 762 186.811 762C178.861 762 173.011 767.7 173.011 775.65C173.011 783.6 178.811 789.35 187.761 789.35C192.361 789.35 196.111 787.85 198.511 785L195.161 781.15C193.261 783.1 190.911 784.05 187.911 784.05C183.261 784.05 180.011 781.55 179.261 777.65H200.211C200.261 777.05 200.311 776.3 200.311 775.8ZM186.811 767C190.911 767 193.861 769.65 194.361 773.5H179.211C179.811 769.6 182.761 767 186.811 767ZM233.915 775.8C233.915 767.45 228.215 762 220.415 762C212.465 762 206.615 767.7 206.615 775.65C206.615 783.6 212.415 789.35 221.365 789.35C225.965 789.35 229.715 787.85 232.115 785L228.765 781.15C226.865 783.1 224.515 784.05 221.515 784.05C216.865 784.05 213.615 781.55 212.865 777.65H233.815C233.865 777.05 233.915 776.3 233.915 775.8ZM220.415 767C224.515 767 227.465 769.65 227.965 773.5H212.815C213.415 769.6 216.365 767 220.415 767ZM248.368 766.2V762.3H242.418V789H248.668V776.05C248.668 770.6 251.668 767.8 256.418 767.8C256.868 767.8 257.318 767.85 257.868 767.95V762C253.418 762 250.168 763.4 248.368 766.2ZM268.82 757.9C271.17 757.9 272.82 756.2 272.82 754C272.82 751.95 271.12 750.4 268.82 750.4C266.52 750.4 264.82 752.05 264.82 754.15C264.82 756.25 266.52 757.9 268.82 757.9ZM265.67 789H271.92V762.3H265.67V789ZM297.773 762C293.873 762 290.623 763.3 288.573 765.75V762.3H282.623V789H288.873V775.5C288.873 770.15 291.873 767.45 296.323 767.45C300.323 767.45 302.673 769.75 302.673 774.5V789H308.923V773.7C308.923 765.65 304.173 762 297.773 762ZM340.146 762.3V765.85C337.946 763.2 334.646 762 330.896 762C323.246 762 317.396 767.1 317.396 774.85C317.396 782.6 323.246 787.8 330.896 787.8C334.496 787.8 337.646 786.65 339.846 784.25V785.65C339.846 791.05 337.246 793.75 331.346 793.75C327.646 793.75 323.846 792.5 321.496 790.55L318.696 795.25C321.746 797.75 326.696 799.05 331.696 799.05C341.046 799.05 346.096 794.65 346.096 784.95V762.3H340.146ZM331.846 782.5C327.096 782.5 323.696 779.4 323.696 774.85C323.696 770.35 327.096 767.3 331.846 767.3C336.546 767.3 339.946 770.35 339.946 774.85C339.946 779.4 336.546 782.5 331.846 782.5ZM373.731 789H389.031C400.381 789 408.131 782 408.131 771.5C408.131 761 400.381 754 389.031 754H373.731V789ZM380.231 783.5V759.5H388.731C396.531 759.5 401.581 764.25 401.581 771.5C401.581 778.75 396.531 783.5 388.731 783.5H380.231ZM427.14 762C422.84 762 418.69 763.1 415.84 765.3L418.29 769.85C420.29 768.2 423.39 767.2 426.39 767.2C430.84 767.2 433.04 769.35 433.04 773V773.4H426.14C418.04 773.4 415.04 776.9 415.04 781.35C415.04 786 418.89 789.35 424.99 789.35C428.99 789.35 431.89 788.05 433.39 785.75V789H439.29V773.35C439.29 765.65 434.84 762 427.14 762ZM426.29 784.8C423.09 784.8 421.19 783.35 421.19 781.1C421.19 779.15 422.34 777.55 426.59 777.55H433.04V780.65C431.99 783.4 429.34 784.8 426.29 784.8ZM458.061 789.35C465.561 789.35 470.161 786.1 470.161 781.1C470.161 770.65 453.661 775.45 453.661 770.05C453.661 768.3 455.461 767.05 459.261 767.05C461.811 767.05 464.361 767.55 466.911 769.05L469.311 764.3C466.911 762.85 462.861 762 459.311 762C452.111 762 447.561 765.3 447.561 770.35C447.561 781 464.061 776.2 464.061 781.3C464.061 783.15 462.411 784.25 458.461 784.25C455.111 784.25 451.511 783.15 449.161 781.6L446.761 786.35C449.161 788.05 453.611 789.35 458.061 789.35ZM493.193 762C489.493 762 486.343 763.2 484.293 765.4V751.9H478.043V789H484.293V775.5C484.293 770.15 487.293 767.45 491.743 767.45C495.743 767.45 498.093 769.75 498.093 774.5V789H504.343V773.7C504.343 765.65 499.593 762 493.193 762ZM529.572 762C526.172 762 523.172 763.15 521.022 765.55V751.9H514.772V789H520.722V785.55C522.822 788.1 525.922 789.35 529.572 789.35C537.372 789.35 543.122 783.95 543.122 775.65C543.122 767.35 537.372 762 529.572 762ZM528.872 784C524.372 784 520.922 780.75 520.922 775.65C520.922 770.55 524.372 767.3 528.872 767.3C533.372 767.3 536.772 770.55 536.772 775.65C536.772 780.75 533.372 784 528.872 784ZM563.549 789.35C571.849 789.35 577.799 783.65 577.799 775.65C577.799 767.65 571.849 762 563.549 762C555.349 762 549.349 767.65 549.349 775.65C549.349 783.65 555.349 789.35 563.549 789.35ZM563.549 784C559.049 784 555.649 780.75 555.649 775.65C555.649 770.55 559.049 767.3 563.549 767.3C568.099 767.3 571.499 770.55 571.499 775.65C571.499 780.75 568.099 784 563.549 784ZM596.134 762C591.834 762 587.684 763.1 584.834 765.3L587.284 769.85C589.284 768.2 592.384 767.2 595.384 767.2C599.834 767.2 602.034 769.35 602.034 773V773.4H595.134C587.034 773.4 584.034 776.9 584.034 781.35C584.034 786 587.884 789.35 593.984 789.35C597.984 789.35 600.884 788.05 602.384 785.75V789H608.284V773.35C608.284 765.65 603.834 762 596.134 762ZM595.284 784.8C592.084 784.8 590.184 783.35 590.184 781.1C590.184 779.15 591.334 777.55 595.584 777.55H602.034V780.65C600.984 783.4 598.334 784.8 595.284 784.8ZM624.755 766.2V762.3H618.805V789H625.055V776.05C625.055 770.6 628.055 767.8 632.805 767.8C633.255 767.8 633.705 767.85 634.255 767.95V762C629.805 762 626.555 763.4 624.755 766.2ZM661.713 751.9V765.6C659.613 763.15 656.563 762 653.113 762C645.363 762 639.613 767.35 639.613 775.65C639.613 783.95 645.363 789.35 653.113 789.35C656.763 789.35 659.863 788.1 661.963 785.55V789H667.963V751.9H661.713ZM653.863 784C649.363 784 645.913 780.75 645.913 775.65C645.913 770.55 649.363 767.3 653.863 767.3C658.363 767.3 661.813 770.55 661.813 775.65C661.813 780.75 658.363 784 653.863 784ZM695.557 789H702.057V754H695.557V789ZM728.574 762C724.674 762 721.424 763.3 719.374 765.75V762.3H713.424V789H719.674V775.5C719.674 770.15 722.674 767.45 727.124 767.45C731.124 767.45 733.474 769.75 733.474 774.5V789H739.724V773.7C739.724 765.65 734.974 762 728.574 762ZM764.453 783.1C763.503 783.85 762.253 784.2 760.953 784.2C758.553 784.2 757.253 782.8 757.253 780.2V767.5H764.403V762.5H757.253V756.4H751.003V762.5H746.603V767.5H751.003V780.35C751.003 786.25 754.353 789.35 760.203 789.35C762.453 789.35 764.703 788.75 766.203 787.55L764.453 783.1ZM798.065 775.8C798.065 767.45 792.365 762 784.565 762C776.615 762 770.765 767.7 770.765 775.65C770.765 783.6 776.565 789.35 785.515 789.35C790.115 789.35 793.865 787.85 796.265 785L792.915 781.15C791.015 783.1 788.665 784.05 785.665 784.05C781.015 784.05 777.765 781.55 777.015 777.65H797.965C798.015 777.05 798.065 776.3 798.065 775.8ZM784.565 767C788.665 767 791.615 769.65 792.115 773.5H776.965C777.565 769.6 780.515 767 784.565 767ZM812.519 766.2V762.3H806.569V789H812.819V776.05C812.819 770.6 815.819 767.8 820.569 767.8C821.019 767.8 821.469 767.85 822.019 767.95V762C817.569 762 814.319 763.4 812.519 766.2ZM850.127 762.3V765.85C847.927 763.2 844.627 762 840.877 762C833.227 762 827.377 767.1 827.377 774.85C827.377 782.6 833.227 787.8 840.877 787.8C844.477 787.8 847.627 786.65 849.827 784.25V785.65C849.827 791.05 847.227 793.75 841.327 793.75C837.627 793.75 833.827 792.5 831.477 790.55L828.677 795.25C831.727 797.75 836.677 799.05 841.677 799.05C851.027 799.05 856.077 794.65 856.077 784.95V762.3H850.127ZM841.827 782.5C837.077 782.5 833.677 779.4 833.677 774.85C833.677 770.35 837.077 767.3 841.827 767.3C846.527 767.3 849.927 770.35 849.927 774.85C849.927 779.4 846.527 782.5 841.827 782.5ZM872.743 766.2V762.3H866.793V789H873.043V776.05C873.043 770.6 876.043 767.8 880.793 767.8C881.243 767.8 881.693 767.85 882.243 767.95V762C877.793 762 874.543 763.4 872.743 766.2ZM900.099 762C895.799 762 891.649 763.1 888.799 765.3L891.249 769.85C893.249 768.2 896.349 767.2 899.349 767.2C903.799 767.2 905.999 769.35 905.999 773V773.4H899.099C890.999 773.4 887.999 776.9 887.999 781.35C887.999 786 891.849 789.35 897.949 789.35C901.949 789.35 904.849 788.05 906.349 785.75V789H912.249V773.35C912.249 765.65 907.799 762 900.099 762ZM899.249 784.8C896.049 784.8 894.149 783.35 894.149 781.1C894.149 779.15 895.299 777.55 899.549 777.55H905.999V780.65C904.949 783.4 902.299 784.8 899.249 784.8ZM937.07 783.1C936.12 783.85 934.87 784.2 933.57 784.2C931.17 784.2 929.87 782.8 929.87 780.2V767.5H937.02V762.5H929.87V756.4H923.62V762.5H919.22V767.5H923.62V780.35C923.62 786.25 926.97 789.35 932.82 789.35C935.07 789.35 937.32 788.75 938.82 787.55L937.07 783.1ZM970.682 775.8C970.682 767.45 964.982 762 957.182 762C949.232 762 943.382 767.7 943.382 775.65C943.382 783.6 949.182 789.35 958.132 789.35C962.732 789.35 966.482 787.85 968.882 785L965.532 781.15C963.632 783.1 961.282 784.05 958.282 784.05C953.632 784.05 950.382 781.55 949.632 777.65H970.582C970.632 777.05 970.682 776.3 970.682 775.8ZM957.182 767C961.282 767 964.232 769.65 964.732 773.5H949.582C950.182 769.6 953.132 767 957.182 767ZM999.086 751.9V765.6C996.986 763.15 993.936 762 990.486 762C982.736 762 976.986 767.35 976.986 775.65C976.986 783.95 982.736 789.35 990.486 789.35C994.136 789.35 997.236 788.1 999.336 785.55V789H1005.34V751.9H999.086ZM991.236 784C986.736 784 983.286 780.75 983.286 775.65C983.286 770.55 986.736 767.3 991.236 767.3C995.736 767.3 999.186 770.55 999.186 775.65C999.186 780.75 995.736 784 991.236 784Z" fill="#768396"/>
<defs>
<linearGradient id="paint0_linear_102_69" x1="697.118" y1="182.094" x2="284.482" y2="394.259" gradientUnits="userSpaceOnUse">
<stop stop-color="#28ABDA"/>
<stop offset="0.875515" stop-color="#34DEF5" stop-opacity="0.58"/>
</linearGradient>
</defs>
</svg>
