<svg width="290" height="220" viewBox="0 0 290 220" fill="none" xmlns="http://www.w3.org/2000/svg">
<path d="M8.96 205.64V197.92H22.48V193.64H8.96V186.36H24.2V182H3.76V210H24.76V205.64H8.96ZM38.2156 200.96H49.2156V196.8H38.2156V200.96ZM89.0863 210L82.6463 200.8C86.4463 199.32 88.6063 196.2 88.6063 191.96C88.6063 185.76 84.0463 182 76.6863 182H65.1663V210H70.3663V201.84H76.6863C77.0463 201.84 77.4063 201.84 77.7663 201.8L83.4863 210H89.0863ZM83.3663 191.96C83.3663 195.48 81.0063 197.56 76.4463 197.56H70.3663V186.4H76.4463C81.0063 186.4 83.3663 188.44 83.3663 191.96ZM125.384 210H130.824L118.184 182H113.064L100.464 210H105.824L108.584 203.52H122.584L125.384 210ZM110.344 199.44L115.584 187.2L120.864 199.44H110.344ZM164.105 182V200.96L148.665 182H144.385V210H149.545V191.04L164.985 210H169.265V182H164.105ZM205.888 204.4C204.088 205.44 202.128 205.84 200.128 205.84C194.208 205.84 190.008 201.68 190.008 196C190.008 190.2 194.208 186.16 200.168 186.16C203.168 186.16 205.688 187.16 207.888 189.36L211.168 186.16C208.528 183.16 204.608 181.6 199.928 181.6C191.168 181.6 184.768 187.64 184.768 196C184.768 204.36 191.168 210.4 199.848 210.4C203.808 210.4 207.888 209.2 210.808 206.84V195.68H205.888V204.4ZM232.866 205.64V197.92H246.386V193.64H232.866V186.36H248.106V182H227.666V210H248.666V205.64H232.866ZM288.383 210L281.943 200.8C285.743 199.32 287.903 196.2 287.903 191.96C287.903 185.76 283.343 182 275.983 182H264.463V210H269.663V201.84H275.983C276.343 201.84 276.703 201.84 277.063 201.8L282.783 210H288.383ZM282.663 191.96C282.663 195.48 280.303 197.56 275.743 197.56H269.663V186.4H275.743C280.303 186.4 282.663 188.44 282.663 191.96Z" fill="#4B5563"/>
<path d="M123.75 132.812C123.75 131.404 124.31 130.052 125.306 129.056C126.302 128.06 127.654 127.5 129.062 127.5H160.937C162.346 127.5 163.698 128.06 164.694 129.056C165.69 130.052 166.25 131.404 166.25 132.812C166.25 134.221 165.69 135.573 164.694 136.569C163.698 137.565 162.346 138.125 160.937 138.125H129.062C127.654 138.125 126.302 137.565 125.306 136.569C124.31 135.573 123.75 134.221 123.75 132.812ZM91.875 85.6588C91.875 71.825 104.997 61.2531 118.756 62.5388C136.214 64.1681 153.786 64.1681 171.244 62.5388C185.003 61.2531 198.125 71.825 198.125 85.6588V97.9519C198.168 100.303 197.375 102.592 195.886 104.412C194.397 106.232 192.31 107.463 189.997 107.886C181.019 109.448 165.134 111.563 145 111.563C124.866 111.563 108.981 109.438 100.003 107.886C97.6902 107.463 95.603 106.232 94.1141 104.412C92.6252 102.592 91.8316 100.303 91.875 97.9519V85.6588ZM140.134 76.8719C139.72 76.8014 139.295 76.8302 138.894 76.9558C138.493 77.0814 138.128 77.3002 137.828 77.5944L128.053 87.1569C121.404 86.7606 114.773 86.112 108.174 85.2125C107.49 85.1446 106.806 85.3443 106.267 85.7698C105.727 86.1953 105.373 86.8134 105.28 87.4942C105.186 88.1751 105.36 88.8657 105.765 89.421C106.17 89.9762 106.774 90.3529 107.451 90.4719C113.295 91.2794 120.541 92.055 128.914 92.5225C129.283 92.5433 129.652 92.4869 129.997 92.357C130.343 92.2272 130.658 92.0266 130.922 91.7681L138.933 83.9481L147.932 102.117C148.122 102.498 148.4 102.828 148.744 103.079C149.088 103.33 149.487 103.495 149.908 103.56C150.329 103.624 150.759 103.587 151.162 103.45C151.565 103.314 151.93 103.082 152.225 102.776L162.127 92.4694C168.958 92.0638 175.77 91.3975 182.549 90.4719C183.226 90.3529 183.83 89.9762 184.235 89.421C184.64 88.8657 184.814 88.1751 184.72 87.4942C184.627 86.8134 184.273 86.1953 183.733 85.7698C183.194 85.3443 182.51 85.1446 181.826 85.2125C176.11 85.9988 169.002 86.7531 160.789 87.2206C160.12 87.2578 159.49 87.5462 159.025 88.0281L151.014 96.3688L142.067 78.3063C141.881 77.9318 141.608 77.6066 141.272 77.3574C140.936 77.1081 140.546 76.9418 140.134 76.8719Z" fill="url(#paint0_linear_102_29)"/>
<path d="M150.312 19.8265C152.338 18.6571 153.921 16.8519 154.816 14.691C155.711 12.5301 155.868 10.1343 155.263 7.87505C154.658 5.61582 153.324 3.61947 151.468 2.19562C149.612 0.771773 147.339 0 145 0C142.661 0 140.388 0.771773 138.532 2.19562C136.676 3.61947 135.342 5.61582 134.737 7.87505C134.132 10.1343 134.289 12.5301 135.184 14.691C136.079 16.8519 137.662 18.6571 139.688 19.8265V31.8753H118.438C105.757 31.8753 93.5955 36.9126 84.629 45.8792C75.6624 54.8458 70.625 67.0071 70.625 79.6878V85.0003C67.8071 85.0003 65.1046 86.1197 63.112 88.1123C61.1194 90.1048 60 92.8073 60 95.6253V116.875C60 119.693 61.1194 122.396 63.112 124.388C65.1046 126.381 67.8071 127.5 70.625 127.5V138.125C70.625 143.761 72.8638 149.166 76.849 153.151C80.8341 157.136 86.2391 159.375 91.875 159.375H198.125C203.761 159.375 209.166 157.136 213.151 153.151C217.136 149.166 219.375 143.761 219.375 138.125V127.5C222.193 127.5 224.895 126.381 226.888 124.388C228.881 122.396 230 119.693 230 116.875V95.6253C230 92.8073 228.881 90.1048 226.888 88.1123C224.895 86.1197 222.193 85.0003 219.375 85.0003V79.6878C219.375 67.0071 214.338 54.8458 205.371 45.8792C196.404 36.9126 184.243 31.8753 171.562 31.8753H150.312V19.8265ZM208.75 79.6878V138.125C208.75 140.943 207.631 143.646 205.638 145.638C203.645 147.631 200.943 148.75 198.125 148.75H91.875C89.0571 148.75 86.3546 147.631 84.362 145.638C82.3694 143.646 81.25 140.943 81.25 138.125V79.6878C81.25 69.825 85.168 60.3662 92.142 53.3922C99.116 46.4182 108.575 42.5003 118.438 42.5003H171.562C181.425 42.5003 190.884 46.4182 197.858 53.3922C204.832 60.3662 208.75 69.825 208.75 79.6878Z" fill="#28ABDA"/>
<defs>
<linearGradient id="paint0_linear_102_29" x1="202.5" y1="54.5" x2="79" y2="118" gradientUnits="userSpaceOnUse">
<stop stop-color="#28ABDA"/>
<stop offset="0.875515" stop-color="#34DEF5" stop-opacity="0.58"/>
</linearGradient>
</defs>
</svg>
