<svg width="568" height="534" viewBox="0 0 568 534" fill="none" xmlns="http://www.w3.org/2000/svg">
<path d="M213 444.624C213 439.917 214.87 435.402 218.199 432.073C221.528 428.744 226.042 426.874 230.75 426.874H337.25C341.958 426.874 346.472 428.744 349.801 432.073C353.13 435.402 355 439.917 355 444.624C355 449.332 353.13 453.847 349.801 457.176C346.472 460.504 341.958 462.374 337.25 462.374H230.75C226.042 462.374 221.528 460.504 218.199 457.176C214.87 453.847 213 449.332 213 444.624ZM106.5 287.075C106.5 240.854 150.342 205.532 196.315 209.827C254.645 215.271 313.355 215.271 371.685 209.827C417.657 205.532 461.5 240.854 461.5 287.075V328.149C461.645 336.003 458.993 343.654 454.019 349.734C449.044 355.814 442.07 359.928 434.342 361.341C404.345 366.56 351.272 373.624 284 373.624C216.727 373.624 163.655 366.524 133.657 361.341C125.93 359.928 118.956 355.814 113.981 349.734C109.006 343.654 106.355 336.003 106.5 328.149V287.075ZM267.741 257.717C266.357 257.482 264.938 257.578 263.599 257.997C262.26 258.417 261.039 259.148 260.037 260.131L227.377 292.081C205.163 290.757 183.007 288.59 160.957 285.584C158.672 285.357 156.388 286.025 154.585 287.446C152.781 288.868 151.599 290.933 151.287 293.208C150.974 295.483 151.556 297.79 152.909 299.646C154.262 301.501 156.281 302.759 158.543 303.157C178.068 305.855 202.279 308.446 230.253 310.008C231.485 310.078 232.718 309.89 233.873 309.456C235.029 309.022 236.081 308.351 236.962 307.488L263.729 281.36L293.798 342.065C294.431 343.338 295.362 344.441 296.51 345.28C297.659 346.119 298.992 346.669 300.398 346.885C301.804 347.101 303.241 346.975 304.588 346.52C305.936 346.064 307.154 345.291 308.14 344.266L341.226 309.831C364.046 308.476 386.807 306.25 409.457 303.157C411.719 302.759 413.738 301.501 415.091 299.646C416.444 297.79 417.025 295.483 416.713 293.208C416.4 290.933 415.218 288.868 413.415 287.446C411.612 286.025 409.328 285.357 407.043 285.584C387.944 288.211 364.194 290.732 336.753 292.294C334.519 292.418 332.414 293.382 330.86 294.992L304.093 322.859L274.202 262.509C273.579 261.258 272.668 260.172 271.546 259.339C270.423 258.506 269.119 257.95 267.741 257.717Z" fill="url(#paint0_linear_102_45)"/>
<path d="M301.75 67.1183C308.518 63.2109 313.807 57.1795 316.798 49.9596C319.788 42.7397 320.313 34.7348 318.29 27.1863C316.268 19.6378 311.811 12.9676 305.611 8.21032C299.411 3.45299 291.815 0.874359 284 0.874359C276.185 0.874359 268.589 3.45299 262.389 8.21032C256.189 12.9676 251.732 19.6378 249.71 27.1863C247.687 34.7348 248.212 42.7397 251.202 49.9596C254.193 57.1795 259.482 63.2109 266.25 67.1183V107.375H195.25C152.882 107.375 112.249 124.206 82.2897 154.165C52.3308 184.124 35.5 224.757 35.5 267.125V284.875C26.0848 284.875 17.0553 288.615 10.3977 295.273C3.74017 301.931 0 310.96 0 320.375L0 391.375C0 400.79 3.74017 409.82 10.3977 416.478C17.0553 423.135 26.0848 426.875 35.5 426.875V462.375C35.5 481.206 42.9803 499.265 56.2954 512.58C69.6105 525.895 87.6696 533.375 106.5 533.375H461.5C480.33 533.375 498.389 525.895 511.705 512.58C525.02 499.265 532.5 481.206 532.5 462.375V426.875C541.915 426.875 550.945 423.135 557.602 416.478C564.26 409.82 568 400.79 568 391.375V320.375C568 310.96 564.26 301.931 557.602 295.273C550.945 288.615 541.915 284.875 532.5 284.875V267.125C532.5 224.757 515.669 184.124 485.71 154.165C455.751 124.206 415.118 107.375 372.75 107.375H301.75V67.1183ZM497 267.125V462.375C497 471.79 493.26 480.82 486.602 487.478C479.945 494.135 470.915 497.875 461.5 497.875H106.5C97.0848 497.875 88.0553 494.135 81.3977 487.478C74.7402 480.82 71 471.79 71 462.375V267.125C71 234.172 84.0906 202.569 107.392 179.267C130.693 155.966 162.297 142.875 195.25 142.875H372.75C405.703 142.875 437.307 155.966 460.608 179.267C483.909 202.569 497 234.172 497 267.125Z" fill="#28ABDA"/>
<defs>
<linearGradient id="paint0_linear_102_45" x1="476.118" y1="182.968" x2="63.4823" y2="395.133" gradientUnits="userSpaceOnUse">
<stop stop-color="#28ABDA"/>
<stop offset="0.875515" stop-color="#34DEF5" stop-opacity="0.58"/>
</linearGradient>
</defs>
</svg>
